# xmcd
#
# Track frame offsets:
#	150
#	14832
#	31450
#	41662
#	55682
#	86015
#	103135
#	119045
#	129965
#	137090
#	153862
#	159092
#	183127
#
# Disc length: 2943 seconds
# Revision: 2
# Processed by: cddbd v1.5.2PL0 Copyright (c) Steve Scherf et al.
# Submitted via: dBpowerAMP V12.0
#
DISCID=a60b7d0d
DTITLE=Jean-PierreRampal~flutes;LosAngelesPhilharmonic,condMichelColombier - Fascinatin' Rampal
DYEAR=1985
DGENRE=Blues
TTITLE0=I Got Rhythm~Fascinating Rhythm
TTITLE1=Someone to Watch Over Me
TTITLE2=Nice Work if You Can Get It
TTITLE3=The Man I Love
TTITLE4=Bess, You is My Woman Now
TTITLE5=My Man's Gone Now
TTITLE6=Summertime
TTITLE7=Liza
TTITLE8=I- Allegro ben ritmato e deciso
TTITLE9=II- Andante con moto e poco rubato
TTITLE10=III- Allegro ben ritmato e deciso
TTITLE11=A Foggy Day (in London Town)
TTITLE12=An American in Paris
EXTD=
EXTT0=
EXTT1=
EXTT2=
EXTT3=
EXTT4=
EXTT5=
EXTT6=
EXTT7=
EXTT8=
EXTT9=
EXTT10=
EXTT11=
EXTT12=
PLAYORDER=
